<svg width="12" height="12" viewBox="0 0 12 12" fill="none" xmlns="http://www.w3.org/2000/svg">
<g clip-path="url(#clip0_14_2532)">
<path d="M11.9687 4.60309C11.8902 4.36011 11.6746 4.18752 11.4197 4.16454L7.95613 3.85005L6.58656 0.644434C6.48558 0.409504 6.25559 0.257431 6.00006 0.257431C5.74453 0.257431 5.51454 0.409504 5.41356 0.644984L4.04399 3.85005L0.579908 4.16454C0.325385 4.18807 0.110414 4.36011 0.0314019 4.60309C-0.0476102 4.84608 0.0253592 5.1126 0.2179 5.2806L2.83592 7.57662L2.06392 10.9772C2.00743 11.2273 2.10448 11.4857 2.31195 11.6357C2.42346 11.7163 2.55393 11.7573 2.68549 11.7573C2.79893 11.7573 2.91145 11.7267 3.01243 11.6663L6.00006 9.88069L8.98659 11.6663C9.20513 11.7978 9.48062 11.7858 9.68762 11.6357C9.89518 11.4853 9.99214 11.2267 9.93565 10.9772L9.16365 7.57662L11.7817 5.28106C11.9742 5.1126 12.0477 4.84654 11.9687 4.60309Z" fill="#FFC107"/>
</g>
<defs>
<clipPath id="clip0_14_2532">
<rect width="12" height="12" fill="white"/>
</clipPath>
</defs>
</svg>
