<svg width="375" height="269" viewBox="0 0 375 269" fill="none" xmlns="http://www.w3.org/2000/svg">
<mask id="mask0_6_146" style="mask-type:alpha" maskUnits="userSpaceOnUse" x="0" y="-80" width="375" height="349">
<path d="M0 -80H375V269H0V-80Z" fill="white"/>
</mask>
<g mask="url(#mask0_6_146)">
<path d="M-25 313.5V-245V-352L393 -344.5C395 -219.5 397.8 32.9 393 86.5C388.2 140.1 341.695 167.39 275.5 161C42.5 138.507 27.5 232 -25 313.5Z" fill="url(#paint0_linear_6_146)"/>
<path d="M-66.9999 149.5C-69.9999 124.5 -41.9708 52.7282 91.0001 67C282 87.5 362 -9 375 -152C388 -295 418.005 -235.391 416 -302.5C414.609 -349.083 326 -443 326 -443" stroke="white" stroke-opacity="0.13"/>
<path d="M-105.79 81.5C-108.79 56.5 -80.7611 -15.2718 52.2099 -1C243.21 19.5 323.21 -77 336.21 -220C349.21 -363 379.214 -303.391 377.21 -370.5C375.818 -417.083 287.21 -511 287.21 -511" stroke="white" stroke-opacity="0.13"/>
</g>
<defs>
<linearGradient id="paint0_linear_6_146" x1="-25" y1="-19.2502" x2="398.947" y2="-19.2502" gradientUnits="userSpaceOnUse">
<stop stop-color="#FF8B38"/>
<stop offset="1" stop-color="#F3664B"/>
</linearGradient>
</defs>
</svg>
